<?xml version="1.0" encoding="utf-8"?>
<!-- Generator: Adobe Illustrator 24.0.1, SVG Export Plug-In . SVG Version: 6.00 Build 0)  -->
<svg version="1.1" id="Layer_1" focusable="false" xmlns="http://www.w3.org/2000/svg" xmlns:xlink="http://www.w3.org/1999/xlink"
	 x="0px" y="0px" viewBox="0 0 512 512" style="enable-background:new 0 0 512 512;" xml:space="preserve">
<style type="text/css">
	.st0{fill:#2EE07E;}
	.st1{fill:none;stroke:#2EE07E;stroke-width:65;stroke-miterlimit:10;}
</style>
<g>
	<path class="st0" d="M256,55c53.7,0,104.2,20.9,142.1,58.9c38,38,58.9,88.4,58.9,142.1s-20.9,104.2-58.9,142.1
		c-38,38-88.4,58.9-142.1,58.9s-104.2-20.9-142.1-58.9C75.9,360.2,55,309.7,55,256s20.9-104.2,58.9-142.1
		C151.8,75.9,202.3,55,256,55 M256,0C114.6,0,0,114.6,0,256s114.6,256,256,256s256-114.6,256-256S397.4,0,256,0L256,0z"/>
</g>
<polyline class="st1" points="390.6,167.4 213.4,344.6 121.4,252.6 "/>
</svg>
