<?xml version="1.0" encoding="utf-8"?>
<!-- Generator: Adobe Illustrator 23.0.2, SVG Export Plug-In . SVG Version: 6.00 Build 0)  -->
<svg version="1.1" id="Layer_1" xmlns="http://www.w3.org/2000/svg" xmlns:xlink="http://www.w3.org/1999/xlink" x="0px" y="0px"
	 viewBox="0 0 492 492" style="enable-background:new 0 0 492 492;" xml:space="preserve">
<g>
	<g>
		<path d="M246.1,293.4L62,109.3c-5.1-5.1-11.8-7.9-19-7.9c-7.2,0-14,2.8-19,7.9L7.9,125.5c-5.1,5.1-7.9,11.8-7.9,19s2.8,14,7.9,19
			L227,382.7c5.1,5.1,11.9,7.9,19.1,7.8c7.2,0,14-2.8,19.1-7.8l218.9-218.9c5.1-5.1,7.9-11.8,7.9-19c0-7.2-2.8-14-7.9-19L468,109.5
			c-10.5-10.5-27.6-10.5-38.1,0L246.1,293.4z"/>
	</g>
</g>
</svg>
