<svg xmlns="http://www.w3.org/2000/svg" viewBox="0 0 72 72"><path d="M39.2 34.3c-.1-.6-.7-1-1.3-.9s-1 .7-.9 1.3c.1.5.1.9.1 1.4 0 4.7-3.8 8.5-8.5 8.5s-8.5-3.8-8.5-8.5a8.493 8.493 0 0112.3-7.6c.6.3 1.2 0 1.5-.5s0-1.2-.5-1.5c-1.4-.8-3-1.2-4.7-1.2C22.8 25.3 18 30.1 18 36s4.8 10.7 10.7 10.7S39.4 41.9 39.4 36c0-.6-.1-1.2-.2-1.7z"/><path d="M43.3 25.3c-5.9 0-10.7 4.8-10.7 10.7 0 .6 0 1.2.1 1.7.1.6.7 1 1.3.9s1-.7.9-1.3c-.1-.5-.1-.9-.1-1.4 0-4.7 3.8-8.5 8.5-8.5s8.4 3.8 8.4 8.4-3.8 8.5-8.5 8.5c-1.3 0-2.6-.3-3.8-.9-.5-.3-1.2 0-1.5.5s0 1.2.5 1.5c1.5.7 3.1 1.1 4.8 1.1 5.9 0 10.7-4.8 10.7-10.7.1-5.7-4.7-10.5-10.6-10.5z"/></svg>