<svg version="1.1" id="Layer_1" xmlns="http://www.w3.org/2000/svg" x="0" y="0" viewBox="0 0 72 72" style="enable-background:new 0 0 72 72" xml:space="preserve"><style>.st1{fill:#fff}</style><path style="fill:#e82127" d="M0 0h72v72H0z"/><path class="st1" d="M36.002 55.125 41.06 26.68c4.821 0 6.342.528 6.562 2.686 0 0 3.234-1.206 4.865-3.655-6.365-2.95-12.761-3.082-12.761-3.082l-3.732 4.545h.008l-3.732-4.546s-6.396.133-12.76 3.083c1.63 2.449 4.865 3.655 4.865 3.655.22-2.158 1.74-2.687 6.528-2.69l5.099 28.45"/><path class="st1" d="M36 21.315c5.146-.04 11.035.796 17.065 3.423.805-1.45 1.013-2.091 1.013-2.091-6.591-2.608-12.764-3.5-18.079-3.522-5.315.022-11.487.914-18.077 3.522 0 0 .294.79 1.013 2.091 6.028-2.627 11.919-3.463 17.064-3.423H36"/></svg>