<?xml version="1.0" encoding="utf-8"?>
<!-- Generator: Adobe Illustrator 24.1.0, SVG Export Plug-In . SVG Version: 6.00 Build 0)  -->
<svg version="1.1" id="Layer_1" xmlns="http://www.w3.org/2000/svg" xmlns:xlink="http://www.w3.org/1999/xlink" x="0px" y="0px"
	 viewBox="0 0 72 72" style="enable-background:new 0 0 72 72;" xml:space="preserve">
<style type="text/css">
	.st0{fill:#231F20;}
</style>
<g id="Guides">
</g>
<g>
	<path class="st0" d="M43,18.4h-5.1c0,0-0.1,24.8-0.1,24.9c0,3.1-2.7,5.5-5.7,5.5s-5.5-2.5-5.5-5.5s2.5-5.5,5.5-5.5
		c0.2,0,0.4,0,0.7,0.1v-5.3c-0.2,0-0.4,0-0.7,0c-6,0-10.8,4.8-10.8,10.8c0,6,4.8,10.8,10.8,10.8c6,0,10.8-4.8,10.8-10.8
		c0-0.1,0-7.9,0-14.6c1.7,2.6,4.6,4.3,8,4.3c0.3,0,0.6,0,0.9,0v-5.9C47.1,26.5,43.5,22.9,43,18.4z"/>
</g>
</svg>
