<svg version="1.1" id="Layer_1" xmlns="http://www.w3.org/2000/svg" x="0" y="0" viewBox="0 0 144 144" xml:space="preserve"><style>.st0{fill:#231f20}</style><path class="st0" d="M42.4 18.1h-5.1L37.2 43c0 3.1-2.7 5.5-5.7 5.5S26 46 26 43s2.5-5.5 5.5-5.5l.7.1v-5.3h-.7c-6 0-10.8 4.8-10.8 10.8s4.8 10.8 10.8 10.8 10.8-4.8 10.8-10.8V28.5a9.5 9.5 0 008 4.3h.9v-5.9c-4.7-.7-8.3-4.3-8.8-8.8zM114.4 18.1h-5.1l-.1 24.9c0 3.1-2.7 5.5-5.7 5.5S98.1 46 98.1 43s2.5-5.5 5.5-5.5l.7.1v-5.3h-.7c-6 0-10.8 4.8-10.8 10.8s4.8 10.8 10.8 10.8 10.8-4.8 10.8-10.8V28.5a9.5 9.5 0 008 4.3h.9v-5.9c-4.8-.7-8.4-4.3-8.9-8.8zM78.4 90.1h-5.1l-.1 24.9c0 3.1-2.7 5.5-5.7 5.5S62 118 62 115s2.5-5.5 5.5-5.5l.7.1v-5.3h-.7c-6 0-10.8 4.8-10.8 10.8s4.8 10.8 10.8 10.8 10.8-4.8 10.8-10.8v-14.6a9.5 9.5 0 008 4.3h.9v-5.9c-4.7-.7-8.3-4.3-8.8-8.8zM150.4 90.1h-5.1l-.1 24.9c0 3.1-2.7 5.5-5.7 5.5S134 118 134 115s2.5-5.5 5.5-5.5l.7.1v-5.3h-.7c-6 0-10.8 4.8-10.8 10.8s4.8 10.8 10.8 10.8 10.8-4.8 10.8-10.8v-14.6a9.5 9.5 0 008 4.3h.9v-5.9c-4.7-.7-8.3-4.3-8.8-8.8zM6.4 90.1H1.3L1.2 115c0 3.1-2.7 5.5-5.7 5.5S-10 118-10 115s2.5-5.5 5.5-5.5l.7.1v-5.3h-.7c-6 0-10.8 4.8-10.8 10.8s4.8 10.8 10.8 10.8 10.8-4.8 10.8-10.8v-14.6a9.5 9.5 0 008 4.3h.9v-5.9c-4.7-.7-8.3-4.3-8.8-8.8z"/></svg>